# xmcd
#
# Track frame offsets:
#	150
#	11627
#	22327
#	42042
#	52475
#	63565
#	75017
#	84567
#	94500
#	107355
#	119672
#	133872
#
# Disc length: 2006
#
# Revision: 1
# Processed by: cddbd v1.5.1PL0 Copyright (c) Steve Scherf et al.
# Submitted via: EasyCDDAExtractor 7.7.1.2
# Normalized: r0:DSETVAR1
#
DISCID=9b07d40c
DTITLE=Various Artist - Country People
DYEAR=1900
DGENRE=Country
TTITLE0=Don Gibson - Oh Lonesome Me
TTITLE1=Slim Withman - Rose Marie
TTITLE2=Marty Robbins - El Paso
TTITLE3=Johnny Russel - Jambalaya
TTITLE4=Roger Miller - King Of The Road
TTITLE5=Kenny Rogers - Me And Bobby Mcgee
TTITLE6=George Jones - The Race Is On
TTITLE7=Johnny Cash - Rock Island Line
TTITLE8=Faron Young - Itís Four In The Morning
TTITLE9=Porter Wagoner - Satisfied Mind
TTITLE10=Glen Cambel - Rhinestone Cowboy
TTITLE11=Boxcar Millie - Take Me Home
EXTD=
EXTT0=
EXTT1=
EXTT2=
EXTT3=
EXTT4=
EXTT5=
EXTT6=
EXTT7=
EXTT8=
EXTT9=
EXTT10=
EXTT11=
PLAYORDER=
